<?xml version="1.0" encoding="UTF-8"?>
<svg width="24px" height="24px" viewBox="0 0 24 24" version="1.1" xmlns="http://www.w3.org/2000/svg" xmlns:xlink="http://www.w3.org/1999/xlink">
    <title>phone-off</title>
    <g id="Icons" stroke="none" stroke-width="1" fill="none" fill-rule="evenodd" stroke-linecap="round" stroke-linejoin="round">
        <g id="feather-icon" transform="translate(-925.000000, -536.000000)" stroke="#000000" stroke-width="2">
            <g id="phone-off" transform="translate(926.000000, 537.000000)">
                <path d="M9.68,12.31 C10.6948544,13.3257488 11.8418194,14.2002675 13.09,14.91 L14.36,13.64 C14.9151937,13.0909849 15.739125,12.915265 16.47,13.19 C17.3772731,13.5285505 18.3199335,13.763377 19.28,13.89 C20.2740325,14.0304992 21.0098802,14.8861359 21.0000983,15.89 L21.0000983,18.89 C21.0022858,19.4531451 20.767048,19.9911584 20.3520779,20.3718649 C19.9371078,20.7525714 19.3808639,20.9406881 18.82,20.89 C15.7428339,20.5556408 12.7869992,19.5041445 10.19,17.82 C8.98527003,17.0550547 7.86852685,16.159648 6.86,15.15 M4.19,11.81 C2.50585546,9.21300083 1.45435922,6.25716613 1.12,3.18 C1.06947321,2.62087233 1.25627201,2.06625242 1.63476578,1.65162106 C2.01325955,1.23698969 2.54859424,1.00052869 3.11,0.999901681 L6.11,0.999901681 C7.11386406,0.990119843 7.96950085,1.72596748 8.11,2.72 C8.23662301,3.68006645 8.47144946,4.62272688 8.81,5.53 C9.084735,6.26087503 8.90901507,7.08480626 8.36,7.64 L7.09,8.91" id="Shape"></path>
                <line x1="22" y1="0" x2="0" y2="22" id="Shape"></line>
            </g>
        </g>
    </g>
</svg>