<?xml version="1.0" encoding="UTF-8"?>
<svg width="20px" height="20px" viewBox="0 0 20 20" version="1.1" xmlns="http://www.w3.org/2000/svg" xmlns:xlink="http://www.w3.org/1999/xlink">
    <title>headphones</title>
    <g id="Icons" stroke="none" stroke-width="1" fill="none" fill-rule="evenodd" stroke-linecap="round" stroke-linejoin="round">
        <g id="feather-icon" transform="translate(-97.000000, -392.000000)" stroke="#000000" stroke-width="2">
            <g id="headphones" transform="translate(98.000000, 393.000000)">
                <path d="M0,15.0000001 L0,9.00000013 C0,4.0294373 4.0294373,1.3411045e-07 9,1.3411045e-07 C13.9705627,1.3411045e-07 18,4.0294373 18,9.00000013 L18,15.0000001" id="Shape"></path>
                <path d="M18,16 C18,17.1045695 17.1045695,18 16,18 L15,18 C13.8954305,18 13,17.1045695 13,16 L13,13 C13,11.8954305 13.8954305,11 15,11 L18,11 L18,16 Z M0,16 C0,17.1045695 0.8954305,18 2,18 L3,18 C4.1045695,18 5,17.1045695 5,16 L5,13 C5,11.8954305 4.1045695,11 3,11 L0,11 L0,16 Z" id="Shape"></path>
            </g>
        </g>
    </g>
</svg>