<?xml version="1.0" encoding="UTF-8"?>
<svg width="24px" height="24px" viewBox="0 0 24 24" version="1.1" xmlns="http://www.w3.org/2000/svg" xmlns:xlink="http://www.w3.org/1999/xlink">
    <title>camera-off</title>
    <g id="Icons" stroke="none" stroke-width="1" fill="none" fill-rule="evenodd" stroke-linecap="round" stroke-linejoin="round">
        <g id="feather-icon" transform="translate(-994.000000, -104.000000)" stroke="#000000" stroke-width="2">
            <g id="camera-off" transform="translate(995.000000, 105.000000)">
                <line x1="0" y1="0" x2="22" y2="22" id="Shape"></line>
                <path d="M20,20 L2,20 C0.8954305,20 0,19.1045695 0,18 L0,7 C0,5.8954305 0.8954305,5 2,5 L5,5 M8,2 L14,2 L16,5 L20,5 C21.1045695,5 22,5.8954305 22,7 L22,16.34 M14.28,14.28 C13.3724273,15.6063561 11.7591585,16.2607308 10.1840602,15.9413966 C8.60896205,15.6220624 7.37793756,14.391038 7.05860339,12.8159398 C6.73926922,11.2408415 7.39364393,9.62757272 8.72,8.72" id="Shape"></path>
            </g>
        </g>
    </g>
</svg>