<?xml version="1.0" encoding="UTF-8"?>
<svg width="20px" height="20px" viewBox="0 0 20 20" version="1.1" xmlns="http://www.w3.org/2000/svg" xmlns:xlink="http://www.w3.org/1999/xlink">
    <title>command</title>
    <g id="Icons" stroke="none" stroke-width="1" fill="none" fill-rule="evenodd" stroke-linecap="round" stroke-linejoin="round">
        <g id="feather-icon" transform="translate(-1343.000000, -176.000000)" stroke="#000000" stroke-width="2">
            <g id="command" transform="translate(1344.000000, 177.000000)">
                <path d="M15,0 C13.3431458,0 12,1.34314575 12,3 L12,15 C12,16.6568542 13.3431458,18 15,18 C16.6568542,18 18,16.6568542 18,15 C18,13.3431458 16.6568542,12 15,12 L3,12 C1.34314575,12 0,13.3431458 0,15 C0,16.6568542 1.34314575,18 3,18 C4.65685425,18 6,16.6568542 6,15 L6,3 C6,1.34314575 4.65685425,0 3,0 C1.34314575,0 0,1.34314575 0,3 C0,4.65685425 1.34314575,6 3,6 L15,6 C16.6568542,6 18,4.65685425 18,3 C18,1.34314575 16.6568542,0 15,0 Z" id="Shape"></path>
            </g>
        </g>
    </g>
</svg>