<?xml version="1.0" encoding="UTF-8"?>
<svg width="16px" height="24px" viewBox="0 0 16 24" version="1.1" xmlns="http://www.w3.org/2000/svg" xmlns:xlink="http://www.w3.org/1999/xlink">
    <title>mic</title>
    <g id="Icons" stroke="none" stroke-width="1" fill="none" fill-rule="evenodd" stroke-linecap="round" stroke-linejoin="round">
        <g id="feather-icon" transform="translate(-651.000000, -462.000000)" stroke="#000000" stroke-width="2">
            <g id="mic" transform="translate(652.000000, 463.000000)">
                <path d="M7,0 C5.34314575,0 4,1.34314575 4,3 L4,11 C4,12.6568542 5.34314575,14 7,14 C8.65685425,14 10,12.6568542 10,11 L10,3 C10,1.34314575 8.65685425,0 7,0 Z" id="Shape"></path>
                <path d="M14,9 L14,11 C14,14.8659932 10.8659932,18 7,18 C3.13400679,18 -1.77635684e-15,14.8659932 -1.77635684e-15,11 L-1.77635684e-15,9" id="Shape"></path>
                <line x1="7" y1="18" x2="7" y2="22" id="Shape"></line>
                <line x1="3" y1="22" x2="11" y2="22" id="Shape"></line>
            </g>
        </g>
    </g>
</svg>