<?xml version="1.0" encoding="UTF-8"?>
<svg width="24px" height="24px" viewBox="0 0 24 24" version="1.1" xmlns="http://www.w3.org/2000/svg" xmlns:xlink="http://www.w3.org/1999/xlink">
    <title>mic-off</title>
    <g id="Icons" stroke="none" stroke-width="1" fill="none" fill-rule="evenodd" stroke-linecap="round" stroke-linejoin="round">
        <g id="feather-icon" transform="translate(-577.000000, -463.000000)" stroke="#000000" stroke-width="2">
            <g id="mic-off" transform="translate(578.000000, 463.000000)">
                <line x1="0" y1="1" x2="22" y2="23" id="Shape"></line>
                <path d="M8,9 L8,12 C8.00106654,13.2125666 8.73198021,14.305263 9.85230595,14.7691479 C10.9726317,15.2330328 12.2620527,14.9768812 13.12,14.12 M14.0000015,9.34 L14.0000015,4 C14.001549,2.45874069 12.8349546,1.16706808 11.3014976,1.01217343 C9.76804065,0.85727879 8.36670305,1.88956434 8.06,3.4" id="Shape"></path>
                <path d="M16,16.95 C14.0029591,18.9883773 10.9684939,19.610456 8.33049621,18.5222819 C5.69249854,17.4341079 3.97912302,14.8535449 4,12 L4,10 M18,10 L18,12 C17.9996407,12.41244 17.9628309,12.8240412 17.89,13.23" id="Shape"></path>
                <line x1="11" y1="19" x2="11" y2="23" id="Shape"></line>
                <line x1="7" y1="23" x2="15" y2="23" id="Shape"></line>
            </g>
        </g>
    </g>
</svg>